<?xml version="1.0" encoding="utf-8"?>
<!-- Generator: Adobe Illustrator 23.0.1, SVG Export Plug-In . SVG Version: 6.00 Build 0)  -->
<svg version="1.1" id="Layer_1" xmlns="http://www.w3.org/2000/svg" xmlns:xlink="http://www.w3.org/1999/xlink" x="0px" y="0px"
	 viewBox="0 0 61.4 61.4" style="enable-background:new 0 0 61.4 61.4;" xml:space="preserve">
<style type="text/css">
	.st0{stroke:#000000;stroke-width:0.4;}
</style>
<g id="supplier" transform="translate(0.2 0.202)">
	<path id="Path_20" class="st0" d="M61,25.4c0-0.4-0.3-0.8-0.7-1l-9.1-3.1c-0.2-0.1-0.4-0.1-0.6,0l-9.1,3.1c-0.4,0.1-0.7,0.5-0.7,1
		v11.2c0,0.6,0.5,1,1,1c0,0,0,0,0,0H60c0.6,0,1-0.5,1-1c0,0,0,0,0,0L61,25.4z M46.8,35.6v-6.1h8.1v6.1H46.8z M59,35.6h-2v-7.1
		c0-0.6-0.5-1-1-1H45.7c-0.6,0-1,0.5-1,1v7.1h-2v-9.4l8.1-2.7l8.1,2.7L59,35.6z"/>
	<path id="Path_21" class="st0" d="M61,48.8c0-0.4-0.3-0.8-0.7-1l-9.1-3c-0.2-0.1-0.4-0.1-0.6,0l-9.1,3c-0.4,0.1-0.7,0.5-0.7,1V60
		c0,0.6,0.5,1,1,1c0,0,0,0,0,0H60c0.6,0,1-0.5,1-1c0,0,0,0,0,0L61,48.8z M46.8,59v-6.1h8.1V59H46.8z M59,59h-2v-7.1c0-0.6-0.5-1-1-1
		H45.7c-0.6,0-1,0.5-1,1V59h-2v-9.4l8.1-2.7l8.1,2.7L59,59z"/>
	<path id="Path_22" class="st0" d="M61,4.1c0-0.4-0.3-0.8-0.7-1l-9.1-3c-0.2-0.1-0.4-0.1-0.6,0l-9.1,3c-0.4,0.1-0.7,0.5-0.7,1v11.2
		c0,0.6,0.5,1,1,1c0,0,0,0,0,0H60c0.6,0,1-0.5,1-1c0,0,0,0,0,0L61,4.1z M46.8,14.2V8.1h8.1v6.1H46.8z M59,14.2h-2V7.1
		c0-0.6-0.5-1-1-1h0H45.7c-0.6,0-1,0.5-1,1v7.1h-2V4.8l8.1-2.7L59,4.8L59,14.2z"/>
	<path id="Path_23" class="st0" d="M38.6,10.2v-2h-7.1c-0.6,0-1,0.5-1,1v45.8c0,0.6,0.5,1,1,1c0,0,0,0,0,0h7.1v-2h-6.1V31.5h6.1v-2
		h-6.1V10.2H38.6z"/>
	<path id="Path_24" class="st0" d="M1,31.5h3v3.1c0,0.6,0.5,1,1,1c0,0,0,0,0,0h1.2c0.5,1.6,2.3,2.4,3.8,1.9c0.4-0.1,0.8-0.4,1.1-0.6
		c1.2,1.1,3.1,1,4.3-0.2c0.3-0.3,0.5-0.7,0.6-1.1h4.4c0.6,1.6,2.3,2.4,3.9,1.9c0.9-0.3,1.6-1,1.9-1.9h1.2c0.6,0,1-0.5,1-1
		c0,0,0,0,0,0v-5.1c0-0.3-0.1-0.5-0.3-0.7L26.4,27V16.3c0-0.6-0.5-1-1-1c-0.2,0-0.3,0-0.5,0.1l-2.6,1.3v-6.5c0-0.6-0.4-1-1-1h-4.1
		c-0.6,0-1,0.5-1,1v5.5l-2,1v-6.5c0-0.6-0.5-1-1-1H9.1c-0.6,0-1,0.5-1,1v5.5l-2,1v-6.5c0-0.6-0.5-1-1-1H1c-0.6,0-1,0.5-1,1v20.3
		C0,31.1,0.5,31.5,1,31.5C1,31.5,1,31.5,1,31.5L1,31.5z M6.1,33.6v-8.1h12.2v8.1h-2.2c-0.5-1.6-2.3-2.4-3.8-1.9
		c-0.4,0.1-0.8,0.4-1.1,0.6c-1.2-1.1-3.1-1-4.3,0.2c-0.3,0.3-0.5,0.7-0.6,1.1H6.1z M9.1,35.6c-0.6,0-1-0.5-1-1c0-0.6,0.5-1,1-1
		c0.6,0,1,0.5,1,1l0,0C10.2,35.1,9.7,35.6,9.1,35.6C9.2,35.6,9.2,35.6,9.1,35.6z M13.2,35.6c-0.6,0-1-0.5-1-1c0-0.6,0.5-1,1-1
		c0.6,0,1,0.5,1,1l0,0C14.2,35.1,13.8,35.6,13.2,35.6C13.2,35.6,13.2,35.6,13.2,35.6L13.2,35.6z M23.4,35.6c-0.6,0-1-0.5-1-1
		c0-0.6,0.5-1,1-1c0.6,0,1,0.5,1,1c0,0,0,0,0,0C24.4,35.1,23.9,35.6,23.4,35.6C23.4,35.6,23.4,35.6,23.4,35.6L23.4,35.6z M26.4,33.6
		h-0.2c-0.6-1.6-2.3-2.4-3.9-1.9c-0.9,0.3-1.6,1-1.9,1.9h-0.2v-6.1H24l2.5,2.5V33.6z M18.3,11.2h2v6.5l-2,1V11.2z M10.2,11.2h2v6.5
		l-2,1L10.2,11.2z M8.1,19.3v1c0,0.6,0.5,1,1,1c0.2,0,0.3,0,0.5-0.1l6.7-3.3v2.4c0,0.6,0.5,1,1,1c0.2,0,0.3,0,0.5-0.1l6.7-3.3v7.5
		h-4.1v-1c0-0.6-0.5-1-1-1H5.1c-0.6,0-1,0.5-1,1v5.1H2V21l6.1-3.1L8.1,19.3z M4.1,11.2v6.5l-2,1v-7.5H4.1z"/>
</g>
</svg>
