<?xml version="1.0" encoding="utf-8"?>
<!-- Generator: Adobe Illustrator 23.0.1, SVG Export Plug-In . SVG Version: 6.00 Build 0)  -->
<svg version="1.1" id="Layer_1" xmlns="http://www.w3.org/2000/svg" xmlns:xlink="http://www.w3.org/1999/xlink" x="0px" y="0px"
	 viewBox="0 0 62.8 62.8" style="enable-background:new 0 0 62.8 62.8;" xml:space="preserve">
<style type="text/css">
	.st0{stroke:#000000;}
</style>
<g id="team_1_" transform="translate(0.5 0.5)">
	<g id="Group_210" transform="translate(24.701)">
		<g id="Group_209">
			<path id="Path_5" class="st0" d="M6.2,0C2.8,0,0,2.8,0,6.2s2.8,6.2,6.2,6.2c3.4,0,6.2-2.8,6.2-6.2S9.6,0,6.2,0C6.2,0,6.2,0,6.2,0
				z M6.2,10.3c-2.3,0-4.1-1.8-4.1-4.1c0-2.3,1.8-4.1,4.1-4.1c2.3,0,4.1,1.8,4.1,4.1S8.4,10.3,6.2,10.3L6.2,10.3z"/>
		</g>
	</g>
	<g id="Group_212" transform="translate(21.613 13.38)">
		<g id="Group_211">
			<path id="Path_6" class="st0" d="M13.4,0h-0.2l-0.2,0.1c-2.3,1.1-5,1.1-7.3,0L5.4,0H5.1C2.3,0,0,2.3,0,5.1v6.2
				c0,1.7,1.4,3.1,3.1,3.1h12.4c1.7,0,3.1-1.4,3.1-3.1V5.1C18.5,2.3,16.2,0,13.4,0z M16.5,11.3c0,0.6-0.5,1-1,1l0,0H3.1
				c-0.6,0-1-0.5-1-1v0V5.1c0-1.6,1.3-3,2.9-3.1c2.7,1.3,5.9,1.3,8.7,0c1.6,0.1,2.9,1.5,2.9,3.1L16.5,11.3z"/>
		</g>
	</g>
	<g id="Group_214" transform="translate(46.314 33.964)">
		<g id="Group_213">
			<path id="Path_7" class="st0" d="M6.2,0C2.8,0,0,2.8,0,6.2s2.8,6.2,6.2,6.2c3.4,0,6.2-2.8,6.2-6.2v0C12.3,2.8,9.6,0,6.2,0z
				 M6.2,10.3c-2.3,0-4.1-1.8-4.1-4.1s1.8-4.1,4.1-4.1c2.3,0,4.1,1.8,4.1,4.1S8.4,10.3,6.2,10.3L6.2,10.3z"/>
		</g>
	</g>
	<g id="Group_216" transform="translate(43.226 47.343)">
		<g id="Group_215">
			<path id="Path_8" class="st0" d="M13.4,0h-0.2l-0.2,0.1c-2.3,1.1-5,1.1-7.3,0L5.4,0H5.1C2.3,0,0,2.3,0,5.1v6.2
				c0,1.7,1.4,3.1,3.1,3.1h0h12.4c1.7,0,3.1-1.4,3.1-3.1v0V5.1C18.5,2.3,16.2,0,13.4,0z M16.5,11.3c0,0.6-0.5,1-1,1H3.1
				c-0.6,0-1-0.5-1-1V5.1c0-1.6,1.3-3,2.9-3.1c2.7,1.3,5.9,1.3,8.7,0c1.6,0.1,2.9,1.5,2.9,3.1L16.5,11.3z"/>
		</g>
	</g>
	<g id="Group_218" transform="translate(3.088 33.964)">
		<g id="Group_217">
			<path id="Path_9" class="st0" d="M6.2,0C2.8,0,0,2.8,0,6.2c0,3.4,2.8,6.2,6.2,6.2s6.2-2.8,6.2-6.2l0,0C12.3,2.8,9.6,0,6.2,0z
				 M6.2,10.3c-2.3,0-4.1-1.8-4.1-4.1c0-2.3,1.8-4.1,4.1-4.1s4.1,1.8,4.1,4.1S8.4,10.3,6.2,10.3C6.2,10.3,6.2,10.3,6.2,10.3z"/>
		</g>
	</g>
	<g id="Group_220" transform="translate(0 47.343)">
		<g id="Group_219">
			<path id="Path_10" class="st0" d="M13.4,0h-0.2l-0.2,0.1c-2.3,1.1-5,1.1-7.3,0L5.4,0H5.1C2.3,0,0,2.3,0,5.1v6.2
				c0,1.7,1.4,3.1,3.1,3.1c0,0,0,0,0,0h12.4c1.7,0,3.1-1.4,3.1-3.1l0,0V5.1C18.5,2.3,16.2,0,13.4,0z M16.5,11.3c0,0.6-0.5,1-1,1H3.1
				c-0.6,0-1-0.5-1-1V5.1c0-1.6,1.3-3,2.9-3.1c2.7,1.3,5.9,1.3,8.7,0c1.6,0.1,2.9,1.5,2.9,3.1L16.5,11.3z"/>
		</g>
	</g>
	<g id="Group_222" transform="translate(20.584 50.43)">
		<g id="Group_221">
			<path id="Path_11" class="st0" d="M20.5,1.8L20.5,1.8c-0.2-0.5-0.8-0.8-1.4-0.5l0,0c-4.6,1.9-9.8,2.3-14.7,1l1-0.3
				C6,1.9,6.3,1.3,6.1,0.7S5.4-0.1,4.9,0L0.7,1.3c0,0,0,0,0,0c-0.1,0-0.2,0.1-0.3,0.1c0,0-0.1,0-0.1,0.1C0.2,1.6,0.1,1.7,0.1,1.8
				C0,2,0,2.1,0,2.3c0,0.1,0.1,0.3,0.1,0.4c0,0,0,0,0,0l2.1,3.9c0.3,0.5,0.9,0.7,1.4,0.4S4.3,6.2,4,5.7L3.2,4.1
				C8.7,5.8,14.6,5.4,20,3.2C20.5,3,20.7,2.4,20.5,1.8C20.5,1.8,20.5,1.8,20.5,1.8z"/>
		</g>
	</g>
	<g id="Group_224" transform="translate(39.109 8.056)">
		<g id="Group_223">
			<path id="Path_12" class="st0" d="M19.3,19c-0.4-0.4-1.1-0.4-1.5,0l-1.5,1.5c-0.9-9-6.6-16.8-14.9-20.4c-0.5-0.2-1.1,0-1.4,0.5
				c-0.2,0.5,0,1.1,0.5,1.4l0,0c7.5,3.2,12.7,10.1,13.6,18.2L13.1,19c-0.4-0.4-1.1-0.4-1.5,0c-0.4,0.4-0.4,1,0,1.4l3.1,3.1
				c0.4,0.4,1.1,0.4,1.5,0c0,0,0,0,0,0l0,0l3.1-3.1C19.7,20.1,19.7,19.4,19.3,19z"/>
		</g>
	</g>
	<g id="Group_226" transform="translate(6.175 6.192)">
		<g id="Group_225">
			<path id="Path_13" class="st0" d="M16.4,2.7c0-0.1,0-0.1,0-0.2c0,0,0,0,0,0s0,0,0,0c0-0.1-0.1-0.1-0.1-0.1c0-0.1-0.1-0.1-0.1-0.2
				C16.1,2.1,16.1,2.1,16,2c0,0-0.1-0.1-0.1-0.1l-4.1-1.9c-0.5-0.2-1.1,0-1.3,0.6c-0.2,0.5,0,1.1,0.5,1.3l2.1,1C5,7.2,0,15.6,0,24.7
				c0,0.6,0.5,1,1,1c0.6,0,1-0.5,1-1c0-8,4.2-15.4,11.1-19.5l-0.7,1.6c-0.2,0.5,0,1.1,0.5,1.4c0.1,0.1,0.3,0.1,0.4,0.1
				c0.4,0,0.8-0.2,0.9-0.6l2.1-4.3c0,0,0,0,0,0c0-0.1,0-0.1,0.1-0.2c0-0.1,0-0.1,0-0.2C16.5,2.8,16.5,2.8,16.4,2.7z"/>
		</g>
	</g>
</g>
</svg>
