<?xml version="1.0" encoding="utf-8"?>
<!-- Generator: Adobe Illustrator 23.0.1, SVG Export Plug-In . SVG Version: 6.00 Build 0)  -->
<svg version="1.1" id="Layer_1" xmlns="http://www.w3.org/2000/svg" xmlns:xlink="http://www.w3.org/1999/xlink" x="0px" y="0px"
	 viewBox="0 0 51 51" style="enable-background:new 0 0 51 51;" xml:space="preserve">
<g id="chart" transform="translate(0 -0.08)">
	<g id="Group_228" transform="translate(3.421 3.484)">
		<g id="Group_227">
			<path id="Path_27" d="M17.9,0C8,0,0,8,0,17.9s8,17.9,17.9,17.9c9.9,0,17.9-8,17.9-17.9C35.7,8,27.7,0,17.9,0
				C17.9,0,17.9,0,17.9,0z M17.9,1.7c5.3,0,10.2,2.6,13.2,6.9l-2.1,2.1c-0.5-0.3-1.1-0.5-1.7-0.5c-1.9,0-3.4,1.5-3.4,3.4v0
				c0,0.6,0.2,1.2,0.5,1.7l-5.6,5.6c-1.1-0.6-2.4-0.6-3.4,0L11.4,17c0.3-0.5,0.5-1.1,0.5-1.7c0-1.9-1.5-3.4-3.4-3.4
				c-1.6,0-2.9,1-3.3,2.6H2.1C3.7,7,10.2,1.7,17.9,1.7L17.9,1.7z M28.9,13.6c0,0.9-0.8,1.7-1.7,1.7s-1.7-0.8-1.7-1.7
				c0-0.9,0.8-1.7,1.7-1.7C28.1,11.9,28.9,12.7,28.9,13.6C28.9,13.6,28.9,13.6,28.9,13.6L28.9,13.6z M18.7,23.8
				c0,0.9-0.8,1.7-1.7,1.7s-1.7-0.8-1.7-1.7c0-0.9,0.8-1.7,1.7-1.7C17.9,22.1,18.7,22.9,18.7,23.8C18.7,23.8,18.7,23.8,18.7,23.8
				L18.7,23.8z M10.2,15.3c0,0.9-0.8,1.7-1.7,1.7s-1.7-0.8-1.7-1.7c0-0.9,0.8-1.7,1.7-1.7C9.4,13.6,10.2,14.4,10.2,15.3L10.2,15.3z
				 M25.7,32c-7.8,4.3-17.6,1.5-22-6.3c-1.6-2.9-2.3-6.3-1.9-9.6h3.4c0.4,1.5,1.7,2.5,3.3,2.6c0.6,0,1.2-0.2,1.7-0.5l3.9,3.9
				c-0.3,0.5-0.5,1.1-0.5,1.7c0,1.9,1.5,3.4,3.4,3.4c1.9,0,3.4-1.5,3.4-3.4c0-0.6-0.2-1.2-0.5-1.7l5.6-5.6c0.5,0.3,1.1,0.5,1.7,0.5
				c1.9,0,3.4-1.5,3.4-3.4v0c0-0.6-0.2-1.2-0.5-1.7L32,10C36.3,17.8,33.5,27.7,25.7,32L25.7,32z"/>
		</g>
	</g>
	<g id="Group_230" transform="translate(0 0.08)">
		<g id="Group_229" transform="translate(0 0)">
			<path id="Path_28" d="M42.5,8.5c1.5,0,2.9-1.1,3.3-2.6H51V4.3h-5.2c-0.5-1.8-2.3-2.9-4.1-2.4c-1.5,0.4-2.6,1.7-2.6,3.3
				c0,0.6,0.2,1.2,0.5,1.7l-1.5,1.5C31-1,17.6-2.7,8.3,4.4S-2.8,24.9,4.4,34.2c6.7,8.8,19.1,10.9,28.4,4.9l2.6,2.6l1.2,1.2l6.8,6.8
				c1.7,1.8,4.5,1.9,6.3,0.2c1.8-1.7,1.9-4.5,0.2-6.3c-0.1-0.1-0.2-0.2-0.2-0.2l-6.8-6.8l-1.2-1.2l-2.6-2.6c4.6-7,4.6-16.1,0-23.1
				L40.8,8C41.3,8.3,41.9,8.5,42.5,8.5z M42.5,3.4c0.9,0,1.7,0.8,1.7,1.7s-0.8,1.7-1.7,1.7c-0.9,0-1.7-0.8-1.7-1.7
				C40.8,4.2,41.6,3.4,42.5,3.4C42.5,3.4,42.5,3.4,42.5,3.4L42.5,3.4z M48.5,44.6c1.1,1,1.2,2.8,0.1,3.9c-1,1.1-2.8,1.2-3.9,0.1
				c0,0,0,0-0.1-0.1l0,0l-6.8-6.8l3.9-3.9L48.5,44.6z M40.5,36.6l-3.9,3.9l-2.4-2.4c0.1-0.1,0.2-0.2,0.3-0.3s0.3-0.2,0.4-0.3
				c0.2-0.2,0.4-0.3,0.5-0.5c0.1-0.1,0.2-0.2,0.3-0.3c0.3-0.3,0.7-0.7,1-1c0.1-0.1,0.2-0.2,0.3-0.3c0.2-0.2,0.3-0.4,0.5-0.5
				c0.1-0.1,0.2-0.3,0.3-0.4c0.1-0.1,0.2-0.2,0.3-0.3L40.5,36.6z M37.2,32.6c-0.3,0.4-0.5,0.7-0.8,1.1c-0.1,0.1-0.2,0.2-0.3,0.3
				c-0.3,0.3-0.5,0.6-0.8,0.9c-0.1,0.1-0.2,0.2-0.4,0.4c-0.3,0.3-0.6,0.5-0.9,0.8c-0.1,0.1-0.2,0.2-0.3,0.3
				c-0.4,0.3-0.7,0.6-1.1,0.8c-8.8,6.3-21,4.2-27.3-4.6s-4.2-21,4.6-27.3s21-4.2,27.3,4.6C42.1,16.7,42.1,25.8,37.2,32.6L37.2,32.6z
				"/>
		</g>
	</g>
</g>
</svg>
