<?xml version="1.0" encoding="utf-8"?>
<!-- Generator: Adobe Illustrator 23.0.1, SVG Export Plug-In . SVG Version: 6.00 Build 0)  -->
<svg version="1.1" id="Layer_1" xmlns="http://www.w3.org/2000/svg" xmlns:xlink="http://www.w3.org/1999/xlink" x="0px" y="0px"
	 viewBox="0 0 60.4 60.7" style="enable-background:new 0 0 60.4 60.7;" xml:space="preserve">
<g id="languages" transform="translate(-1)">
	<path id="Path_2" d="M59.7,0H31.2c-1,0-1.8,0.8-1.8,1.8v17.4H2.8C1.8,19.2,1,20,1,21v37.9c0,1,0.8,1.8,1.8,1.8
		c0.5,0,0.9-0.2,1.3-0.5l6.6-6.6h20.6c1,0,1.8-0.8,1.8-1.8V34.4h18.8l6.6,6.6c0.7,0.7,1.8,0.7,2.5,0c0.3-0.3,0.5-0.8,0.5-1.3V1.8
		C61.4,0.8,60.6,0,59.7,0z M29.4,50H9.9c-0.5,0-0.9,0.2-1.3,0.5l-4.1,4.1V22.8h24.9V50z M57.9,35.4l-4.1-4.1
		c-0.3-0.3-0.8-0.5-1.3-0.5H33V3.6h24.9V35.4z"/>
	<path id="Path_3" d="M37.7,15.4H39c0.4,2.8,1.6,5.3,3.4,7.4c-1.3,0.6-2.7,0.9-4.2,0.9c-1,0-1.8,0.8-1.7,1.8c0,0.9,0.8,1.7,1.7,1.7
		c2.5,0,5-0.7,7.1-2c2.1,1.3,4.6,2,7.1,2c1,0,1.8-0.8,1.7-1.8c0-0.9-0.8-1.7-1.7-1.7c-1.4,0-2.8-0.3-4.2-0.9
		c1.9-2.1,3.1-4.6,3.4-7.4h1.3c1,0,1.8-0.8,1.7-1.8c0-0.9-0.8-1.7-1.7-1.7h-5.9v-3c0-1-0.8-1.8-1.7-1.8c-1,0-1.8,0.8-1.8,1.7
		c0,0,0,0.1,0,0.1v3h-5.9c-1,0-1.8,0.8-1.7,1.8C36,14.6,36.8,15.4,37.7,15.4L37.7,15.4z M45.4,20.8c-1.5-1.5-2.4-3.3-2.8-5.4h5.6
		C47.9,17.4,46.9,19.3,45.4,20.8L45.4,20.8z"/>
	<path id="Path_4" d="M19,27.7L19,27.7c-0.3-0.9-1.1-1.4-2-1.4l0,0c-0.9,0-1.7,0.5-2,1.3l0,0L8.8,44c-0.4,0.9,0,1.9,0.9,2.3
		c0.9,0.4,1.9,0,2.3-0.9c0,0,0-0.1,0.1-0.1l1.1-2.9h7.6l1.1,2.9c0.3,0.9,1.3,1.4,2.3,1.1c0.9-0.3,1.4-1.3,1.1-2.3c0,0,0-0.1,0-0.1
		L19,27.7z M14.6,38.8l2.4-6.4l2.4,6.4H14.6z"/>
</g>
</svg>
