<?xml version="1.0" encoding="utf-8"?>
<!-- Generator: Adobe Illustrator 23.0.1, SVG Export Plug-In . SVG Version: 6.00 Build 0)  -->
<svg version="1.1" id="blockchain" xmlns="http://www.w3.org/2000/svg" xmlns:xlink="http://www.w3.org/1999/xlink" x="0px" y="0px"
	 viewBox="0 0 54.4 54.4" style="enable-background:new 0 0 54.4 54.4;" xml:space="preserve">
<path id="Path_25" d="M49.3,0h-38c-0.4,0-0.8,0.4-0.7,0.9c0,0.4,0.3,0.7,0.7,0.7h38c1.9,0,3.4,1.5,3.5,3.5v44.3
	c0,1.9-1.5,3.4-3.5,3.5H5c-1.9,0-3.4-1.5-3.5-3.5V5c0-1.9,1.5-3.4,3.5-3.5h2.6c0.4,0,0.8-0.4,0.7-0.9C8.3,0.3,8,0,7.6,0H5
	C2.3,0,0,2.3,0,5v44.3c0,2.8,2.3,5,5,5h44.3c2.8,0,5-2.3,5-5V5C54.4,2.3,52.1,0,49.3,0z"/>
<path id="Path_26" d="M20.9,4.5H6.6c-1.2,0-2.1,0.9-2.1,2.1v14.4c0,1.2,0.9,2.1,2.1,2.1h4.8v8.3H6.6c-1.2,0-2.1,0.9-2.1,2.1v14.4
	c0,1.2,0.9,2.1,2.1,2.1h14.4c1.2,0,2.1-0.9,2.1-2.1v-4.3h8.3v4.3c0,1.2,0.9,2.1,2.1,2.1h14.4c1.2,0,2.1-0.9,2.1-2.1V33.4
	c0-1.2-0.9-2.1-2.1-2.1H43v-1.7c0-0.4-0.4-0.8-0.9-0.7c-0.4,0-0.7,0.3-0.7,0.7v6.5c-0.5-0.1-1.1-0.1-1.6,0v-18
	c0.5,0.1,1.1,0.1,1.6,0v7.7c0,0.4,0.3,0.8,0.7,0.9c0.4,0,0.8-0.3,0.9-0.7c0,0,0-0.1,0-0.1V23h4.8c1.2,0,2.1-0.9,2.1-2.1V6.6
	c0-1.2-0.9-2.1-2.1-2.1H33.4c-1.2,0-2.1,0.9-2.1,2.1v4.3H23V6.6C23,5.4,22.1,4.5,20.9,4.5L20.9,4.5z M36.3,12.4
	c-0.1,0.4-0.2,0.9-0.2,1.3c0,0.1,0,0.2,0,0.3h-7c-0.4,0-0.8,0.4-0.7,0.9c0,0.4,0.3,0.7,0.7,0.7h2.2v5.3c0,1.2,0.9,2.1,2.1,2.1h4.8
	v8.3h-4.8c-1.2,0-2.1,0.9-2.1,2.1v5.3H23v-1.1c0-0.4-0.4-0.8-0.9-0.7c-0.4,0-0.7,0.3-0.7,0.7v1.1h-3.6c-0.4-0.8-1-1.5-1.7-2v-3.9
	h4.8c0.3,0,0.5,0.2,0.5,0.5V34c0,0.4,0.4,0.8,0.9,0.7c0.4,0,0.7-0.3,0.7-0.7v-0.6c0-1.2-0.9-2.1-2.1-2.1h-4.8V23h4.8
	c1.2,0,2.1-0.9,2.1-2.1v-5.3h2.3c0.4,0,0.8-0.4,0.7-0.9c0-0.4-0.3-0.7-0.7-0.7h-7.1c0-0.1,0-0.2,0-0.3c0-0.4-0.1-0.9-0.2-1.3H36.3z
	 M36.3,41.9H18.1c0.1-0.4,0.2-0.9,0.2-1.3c0-0.1,0-0.2,0-0.3h17.9c0,0.1,0,0.2,0,0.3C36.1,41.1,36.2,41.5,36.3,41.9L36.3,41.9z
	 M16.1,17.6c0.8-0.5,1.4-1.2,1.7-2h3.6v5.3c0,0.3-0.2,0.5-0.5,0.5h-4.8L16.1,17.6z M16.7,13.7c0,1.6-1.3,2.9-2.9,2.9
	s-2.9-1.3-2.9-2.9s1.3-2.9,2.9-2.9h0C15.4,10.8,16.7,12.1,16.7,13.7z M13,18.2c0.5,0.1,1.1,0.1,1.6,0v18c-0.5-0.1-1.1-0.1-1.6,0
	V18.2z M13.8,37.7c1.6,0,2.9,1.3,2.9,2.9s-1.3,2.9-2.9,2.9c-1.6,0-2.9-1.3-2.9-2.9c0,0,0,0,0,0C10.8,39,12.1,37.7,13.8,37.7
	L13.8,37.7z M6.6,21.4c-0.3,0-0.5-0.2-0.5-0.5V6.6C6,6.3,6.3,6,6.6,6h14.4c0.3,0,0.5,0.2,0.5,0.5v4.3h-4.3c-1.6-1.9-4.5-2.1-6.4-0.5
	c-1.9,1.6-2.1,4.5-0.5,6.4c0.3,0.4,0.7,0.7,1,0.9v3.9L6.6,21.4z M21.4,47.8c0,0.3-0.2,0.5-0.5,0.5H6.6c-0.3,0-0.5-0.2-0.5-0.5V33.4
	c0-0.3,0.2-0.5,0.5-0.5h4.8v3.9c-2.1,1.3-2.8,4.1-1.4,6.2c1.3,2.1,4.1,2.8,6.2,1.4c0.4-0.2,0.8-0.6,1.1-0.9h4.3L21.4,47.8z M43,32.9
	h4.8c0.3,0,0.5,0.2,0.5,0.5v14.4c0,0.3-0.2,0.5-0.5,0.5H33.4c-0.3,0-0.5-0.2-0.5-0.5v-4.3h4.3c1.6,1.9,4.5,2.1,6.4,0.5
	c1.9-1.6,2.1-4.5,0.5-6.4c-0.3-0.4-0.7-0.7-1.1-0.9L43,32.9z M43.5,40.6c0,1.6-1.3,2.9-2.9,2.9c-1.6,0-2.9-1.3-2.9-2.9
	c0-1.6,1.3-2.9,2.9-2.9c0,0,0,0,0,0C42.2,37.7,43.5,39,43.5,40.6L43.5,40.6z M36.5,38.8h-3.6v-5.3c0-0.3,0.2-0.5,0.5-0.5h4.8v3.9
	C37.5,37.3,36.9,37.9,36.5,38.8L36.5,38.8z M38.2,21.4h-4.8c-0.3,0-0.5-0.2-0.5-0.5v-5.3h3.6c0.4,0.8,1,1.5,1.7,2L38.2,21.4z
	 M37.7,13.7c0-1.6,1.3-2.9,2.9-2.9c1.6,0,2.9,1.3,2.9,2.9c0,1.6-1.3,2.9-2.9,2.9l0,0C39,16.7,37.7,15.4,37.7,13.7z M32.9,6.6
	c0-0.3,0.2-0.5,0.5-0.5h14.4c0.3,0,0.5,0.2,0.5,0.5v14.4c0,0.3-0.2,0.5-0.5,0.5H43v-3.9c2.1-1.3,2.8-4.1,1.4-6.2
	c-1.3-2.1-4.1-2.8-6.2-1.4c-0.4,0.2-0.8,0.6-1.1,0.9h-4.3V6.6z"/>
</svg>
