<?xml version="1.0" encoding="utf-8"?>
<!-- Generator: Adobe Illustrator 23.0.1, SVG Export Plug-In . SVG Version: 6.00 Build 0)  -->
<svg version="1.1" id="Layer_1" xmlns="http://www.w3.org/2000/svg" xmlns:xlink="http://www.w3.org/1999/xlink" x="0px" y="0px"
	 viewBox="0 0 56.8 56.8" style="enable-background:new 0 0 56.8 56.8;" xml:space="preserve">
<g id="stored" transform="translate(0 -1)">
	<path id="Path_14" d="M54.9,57.8H28.4c-1,0-1.9-0.8-1.9-1.9l0,0V30c0-1,0.8-1.9,1.9-1.9h26.5c1,0,1.9,0.8,1.9,1.9c0,0,0,0,0,0v25.9
		C56.8,56.9,55.9,57.8,54.9,57.8L54.9,57.8z M30.2,54.1h22.8V31.8H30.2V54.1z"/>
	<path id="Path_15" d="M41.3,31.8H15.4c-1,0-1.9-0.8-1.9-1.9V2.9c0-1,0.8-1.9,1.9-1.9h25.9c1,0,1.9,0.8,1.9,1.9c0,0,0,0,0,0V30
		C43.2,31,42.4,31.8,41.3,31.8z M17.3,28.1h22.2V4.7H17.3V28.1z"/>
	<path id="Path_16" d="M31.5,13.3h-6.2c-1,0-1.9-0.8-1.9-1.8V2.9c0-1,0.8-1.9,1.9-1.9h6.2c1,0,1.9,0.8,1.9,1.9v8.6
		C33.3,12.5,32.5,13.3,31.5,13.3z M27.1,9.6h2.5V4.7h-2.5V9.6z"/>
	<path id="Path_17" d="M45,40.5h-6.2c-1,0-1.9-0.8-1.9-1.9V30c0-1,0.8-1.9,1.9-1.9H45c1,0,1.9,0.8,1.9,1.9v8.6
		C46.9,39.7,46.1,40.5,45,40.5L45,40.5z M40.7,36.8h2.5v-4.9h-2.5L40.7,36.8z"/>
	<path id="Path_18" d="M28.4,57.8H1.9c-1,0-1.9-0.8-1.9-1.9c0,0,0,0,0,0V30c0-1,0.8-1.9,1.9-1.9h26.5c1,0,1.9,0.8,1.9,1.9v25.9
		C30.2,56.9,29.4,57.8,28.4,57.8L28.4,57.8z M3.7,54.1h22.8V31.8H3.7V54.1z"/>
	<path id="Path_19" d="M17.9,40.5h-6.2c-1,0-1.9-0.8-1.9-1.9V30c0-1,0.8-1.9,1.9-1.9h6.2c1,0,1.9,0.8,1.9,1.9v8.6
		C19.7,39.7,18.9,40.5,17.9,40.5L17.9,40.5z M13.6,36.8H16v-4.9h-2.5V36.8z"/>
</g>
</svg>
